<svg xmlns="http://www.w3.org/2000/svg" xmlns:xlink="http://www.w3.org/1999/xlink" version="1.1" x="0px" y="0px" viewBox="0 0 20 25" enable-background="new 0 0 20 20" xml:space="preserve"><g><path fill="#000000" d="M17,2h-3.6l-0.9-1.5C12.3,0.2,12,0,11.6,0H8.4C8,0,7.7,0.2,7.5,0.5L6.6,2H3C2.4,2,2,2.4,2,3v16   c0,0.6,0.4,1,1,1h14c0.6,0,1-0.4,1-1V3C18,2.4,17.6,2,17,2z M8.9,2h2.1l1.2,2H7.8L8.9,2z M16,18H4V4h1.4L5.1,4.5   C5,4.8,5,5.2,5.1,5.5C5.3,5.8,5.6,6,6,6h8c0.4,0,0.7-0.2,0.9-0.5c0.2-0.3,0.2-0.7,0-1L14.6,4H16V18z"/><polygon fill="#000000" points="9,12.1 7.4,10.5 6,11.9 9,14.9 14,9.9 12.6,8.5  "/></g><text x="0" y="35" fill="#000000" font-size="5px" font-weight="bold" font-family="'Helvetica Neue', Helvetica, Arial-Unicode, Arial, Sans-serif">Created by ProSymbols</text><text x="0" y="40" fill="#000000" font-size="5px" font-weight="bold" font-family="'Helvetica Neue', Helvetica, Arial-Unicode, Arial, Sans-serif">from the Noun Project</text></svg>